<svg width="21" height="21" viewBox="0 0 21 21" fill="none" xmlns="http://www.w3.org/2000/svg">
<path fill-rule="evenodd" clip-rule="evenodd" d="M10.023 0C4.48746 0 0 4.48739 0 10.023C0 15.5585 4.48746 20.0459 10.023 20.0459C15.5586 20.0459 20.0459 15.5585 20.0459 10.023C20.0459 4.48739 15.5586 0 10.023 0ZM10.023 18.0414C5.60165 18.0414 2.00459 14.4443 2.00459 10.023C2.00459 5.60165 5.60165 2.00459 10.023 2.00459C14.4444 2.00459 18.0414 5.60165 18.0414 10.023C18.0414 14.4443 14.4444 18.0414 10.023 18.0414ZM11.278 6.01378C11.278 6.74049 10.7489 7.26666 10.0332 7.26666C9.28842 7.26666 8.7723 6.74049 8.7723 5.99988C8.7723 5.28807 9.30239 4.76091 10.0332 4.76091C10.7489 4.76091 11.278 5.28807 11.278 6.01378ZM9.02287 9.02068H11.0275V15.0345H9.02287V9.02068Z" fill="white"/>
</svg>
