<svg width="18" height="18" viewBox="0 0 18 18" fill="none" xmlns="http://www.w3.org/2000/svg">
<path d="M9.0142 3.47844e-05C13.9305 0.00224359 17.9151 3.9882 17.9151 8.90484C17.9151 11.3619 16.92 13.5865 15.3108 15.1976L15.3109 15.1976C13.6893 16.8754 11.4187 17.9171 8.9048 17.9171C3.98681 17.9171 0 13.9303 0 9.01229C0 6.49937 1.04089 4.22957 2.71504 2.61053L2.71753 2.60815C4.32005 0.997094 6.53853 0 8.98985 0C8.99842 0 9.00698 0 9.01554 3.47844e-05H9.01422H9.0142ZM9.0142 16.6223C13.2765 16.6223 16.7317 13.1671 16.7317 8.90484C16.7317 4.64258 13.2765 1.18736 9.0142 1.18736C4.75195 1.18736 1.29671 4.64257 1.29671 8.9048C1.30167 13.1651 4.75393 16.6173 9.01371 16.6223H9.0142V16.6223ZM11.278 11.7623H5.23856V10.575H11.278C12.6179 10.575 13.7041 9.4888 13.7041 8.1489C13.7041 6.80901 12.6179 5.72283 11.278 5.72283H5.23856V4.53554H11.278C13.2736 4.53554 14.8914 6.15329 14.8914 8.14889C14.8914 10.1445 13.2736 11.7623 11.278 11.7623V11.7623ZM7.834 14.6118L4.40035 11.1686L7.83402 7.72544L8.67463 8.56369L6.07683 11.1686L8.67463 13.7728L7.834 14.6118Z" fill="white"/>
</svg>
