<svg width="29" height="26" viewBox="0 0 29 26" fill="none" xmlns="http://www.w3.org/2000/svg">
<g id="&#240;&#159;&#166;&#134; icon &#34;headset help&#34;">
<path id="Vector" d="M25.3 11.1053C25.3 5.52428 20.4647 1 14.5 1C8.53527 1 3.69995 5.52428 3.69995 11.1053" stroke="white" stroke-width="2" stroke-linecap="round" stroke-linejoin="round"/>
<path id="Vector_2" d="M1 16.7117V14.341C1 13.1817 1.8432 12.1713 3.04516 11.8901L5.39355 11.3408C5.90478 11.2211 6.4 11.5829 6.4 12.076V18.9767C6.4 19.4698 5.90478 19.8316 5.39355 19.712L3.04516 19.1626C1.8432 18.8814 1 17.871 1 16.7117Z" stroke="white"/>
<path id="Vector_3" d="M28 16.7117V14.341C28 13.1817 27.1568 12.1713 25.9549 11.8901L23.6064 11.3408C23.0952 11.2211 22.6 11.5829 22.6 12.076V18.9767C22.6 19.4698 23.0952 19.8316 23.6064 19.712L25.9549 19.1626C27.1568 18.8814 28 17.871 28 16.7117Z" stroke="white"/>
<path id="Vector_4" d="M25.3 19.9474V20.579C25.3 21.9743 24.0912 23.1053 22.6 23.1053H17.875" stroke="white" stroke-width="2"/>
<path id="Vector_5" d="M16.525 25H12.475C11.3566 25 10.45 24.1517 10.45 23.1053C10.45 22.0589 11.3566 21.2106 12.475 21.2106H16.525C17.6433 21.2106 18.55 22.0589 18.55 23.1053C18.55 24.1517 17.6433 25 16.525 25Z" stroke="white"/>
</g>
</svg>
