<svg width="21" height="21" viewBox="0 0 21 21" fill="none" xmlns="http://www.w3.org/2000/svg">
<path d="M19.8947 10.5H17.6841C17.391 10.5 17.1099 10.6106 16.9026 10.8075C16.6953 11.0045 16.5789 11.2715 16.5789 11.55C16.5789 11.8285 16.6953 12.0956 16.9026 12.2925C17.1099 12.4894 17.391 12.6 17.6841 12.6V14.7H16.3752C16.5062 14.3638 16.5751 14.0085 16.5789 13.65C16.579 12.9566 16.3382 12.2825 15.8938 11.7323C15.4495 11.1822 14.8265 10.7867 14.1214 10.6072C13.4163 10.4278 12.6686 10.4745 11.9942 10.7399C11.3199 11.0054 10.7566 11.4749 10.3919 12.0755C10.3186 12.195 10.2709 12.327 10.2515 12.4641C10.2321 12.6011 10.2413 12.7404 10.2788 12.8741C10.3162 13.0077 10.381 13.133 10.4696 13.2427C10.5581 13.3525 10.6686 13.4445 10.7947 13.5136C10.9208 13.5827 11.06 13.6274 11.2043 13.6452C11.3487 13.663 11.4953 13.6536 11.6358 13.6174C11.7763 13.5813 11.9079 13.5191 12.023 13.4345C12.1381 13.3499 12.2345 13.2446 12.3067 13.1245C12.4038 12.9651 12.5432 12.8328 12.711 12.7408C12.8789 12.6487 13.0692 12.6002 13.263 12.6C13.5561 12.6 13.8373 12.7106 14.0446 12.9075C14.2518 13.1045 14.3683 13.3715 14.3683 13.65C14.3683 13.9285 14.2518 14.1955 14.0446 14.3925C13.8373 14.5894 13.5561 14.7 13.263 14.7C12.9699 14.7 12.6887 14.8106 12.4815 15.0075C12.2742 15.2045 12.1577 15.4715 12.1577 15.75C12.1577 16.0285 12.2742 16.2955 12.4815 16.4925C12.6887 16.6894 12.9699 16.8 13.263 16.8C13.5561 16.8 13.8373 16.9106 14.0446 17.1075C14.2518 17.3045 14.3683 17.5715 14.3683 17.85C14.3683 18.1285 14.2518 18.3955 14.0446 18.5925C13.8373 18.7894 13.5561 18.9 13.263 18.9C13.0692 18.8998 12.8789 18.8513 12.711 18.7592C12.5432 18.6672 12.4038 18.5349 12.3067 18.3755C12.2345 18.2554 12.1381 18.1501 12.023 18.0655C11.9079 17.9809 11.7763 17.9187 11.6358 17.8825C11.4953 17.8464 11.3487 17.8369 11.2043 17.8548C11.06 17.8726 10.9208 17.9173 10.7947 17.9864C10.6686 18.0555 10.5581 18.1475 10.4696 18.2573C10.3811 18.367 10.3162 18.4923 10.2788 18.6259C10.2413 18.7595 10.2321 18.8989 10.2515 19.0359C10.2709 19.1729 10.3186 19.305 10.3919 19.4245C10.7567 20.0251 11.3199 20.4946 11.9942 20.76C12.6686 21.0255 13.4163 21.0721 14.1214 20.8927C14.8265 20.7133 15.4495 20.3178 15.8938 19.7677C16.3382 19.2175 16.579 18.5434 16.5789 17.85C16.5751 17.4915 16.5062 17.1362 16.3752 16.8H17.6841V19.95C17.6841 20.2285 17.8006 20.4956 18.0079 20.6925C18.2152 20.8894 18.4963 21 18.7894 21C19.0826 21 19.3637 20.8894 19.571 20.6925C19.7783 20.4956 19.8947 20.2285 19.8947 19.95V12.6C20.1879 12.6 20.469 12.4894 20.6763 12.2925C20.8836 12.0956 21 11.8285 21 11.55C21 11.2715 20.8836 11.0045 20.6763 10.8075C20.469 10.6106 20.1879 10.5 19.8947 10.5ZM6.66477 9.70482C6.73591 9.97486 6.91705 10.207 7.16836 10.3502C7.2928 10.4211 7.43071 10.468 7.57423 10.4882C7.71775 10.5085 7.86406 10.5017 8.00482 10.4682C8.14557 10.4348 8.27801 10.3753 8.39457 10.2932C8.51113 10.2111 8.60953 10.108 8.68415 9.98981C8.75877 9.87159 8.80815 9.74058 8.82947 9.60424C8.85079 9.4679 8.84363 9.3289 8.80841 9.19519L6.8666 1.81392C6.73031 1.29582 6.4156 0.835869 5.97252 0.507198C5.52945 0.178527 4.98343 0 4.42127 0C3.85911 0 3.31309 0.178527 2.87001 0.507198C2.42694 0.835869 2.11223 1.29582 1.97594 1.81392L0.0330568 9.19519C-0.0380823 9.46524 0.00661616 9.75107 0.157319 9.98981C0.308022 10.2285 0.552384 10.4006 0.836649 10.4682C1.12091 10.5358 1.4218 10.4933 1.6731 10.3502C1.92441 10.207 2.10556 9.97486 2.1767 9.70482L2.79653 7.35H6.04526L6.66477 9.70482ZM3.34931 5.25L4.11958 2.32354C4.14294 2.26551 4.18428 2.21559 4.23815 2.18036C4.29202 2.14514 4.35588 2.12629 4.42127 2.12629C4.48666 2.12629 4.55052 2.14514 4.60439 2.18036C4.65826 2.21559 4.6996 2.26551 4.72296 2.32354L5.49282 5.25H3.34931ZM12.1577 5.25H13.263C13.5561 5.25028 13.837 5.361 14.0442 5.55785C14.2515 5.7547 14.368 6.02161 14.3683 6.3V7.35C14.3683 7.62848 14.4847 7.89555 14.692 8.09246C14.8993 8.28938 15.1804 8.4 15.4736 8.4C15.7667 8.4 16.0478 8.28938 16.2551 8.09246C16.4624 7.89555 16.5789 7.62848 16.5789 7.35V6.3C16.5779 5.46485 16.2282 4.66417 15.6066 4.07362C14.985 3.48308 14.1421 3.15092 13.263 3.15H12.1577C11.8646 3.15 11.5834 3.26063 11.3762 3.45754C11.1689 3.65446 11.0524 3.92153 11.0524 4.2C11.0524 4.47848 11.1689 4.74555 11.3762 4.94247C11.5834 5.13938 11.8646 5.25 12.1577 5.25ZM7.73658 14.7H6.6313C6.33825 14.6997 6.05728 14.589 5.85007 14.3922C5.64285 14.1953 5.52631 13.9284 5.52601 13.65V12.6C5.52601 12.3215 5.40956 12.0545 5.20228 11.8575C4.995 11.6606 4.71387 11.55 4.42073 11.55C4.12759 11.55 3.84645 11.6606 3.63917 11.8575C3.43189 12.0545 3.31544 12.3215 3.31544 12.6V13.65C3.3164 14.4852 3.66606 15.2858 4.28769 15.8764C4.90933 16.4669 5.75217 16.7991 6.6313 16.8H7.73658C8.02972 16.8 8.31086 16.6894 8.51814 16.4925C8.72542 16.2955 8.84187 16.0285 8.84187 15.75C8.84187 15.4715 8.72542 15.2045 8.51814 15.0075C8.31086 14.8106 8.02972 14.7 7.73658 14.7Z" fill="black"/>
</svg>
